<svg width="264" height="48" viewBox="0 0 264 48" fill="none" xmlns="http://www.w3.org/2000/svg">
<path d="M96.5916 32.2332V32.4017C98.4067 32.5422 99.8891 33.104 100.98 34.0309C102.068 34.9579 102.63 36.1096 102.63 37.5422C102.63 39.3118 101.987 40.6602 100.7 41.559C99.4136 42.4298 97.7607 42.8793 95.7218 42.8793H84.5932V41.1096L86.8027 40.4045V25.4101L84.5932 24.7079V22.9382H94.8548C96.8405 22.9382 98.4906 23.3315 99.7492 24.118C101.008 24.9045 101.651 26.0815 101.651 27.6264C101.651 30.0113 99.973 31.559 96.5916 32.2332ZM93.1767 31.5028C95.3889 31.5028 96.5916 30.3793 96.5916 28.2725C96.5916 26.2781 95.3889 25.1826 93.1767 25.1826H92.0048V31.5028H93.1767ZM92.0048 33.7191V40.6293H93.7108C95.9455 40.6293 97.1482 39.4495 97.1482 37.2023C97.1482 34.9832 95.9203 33.7191 93.7108 33.7191H92.0048Z" fill="white"/>
<path d="M107.027 24.7077V22.938H116.642V24.7077L114.324 25.4099V36.0813C114.324 38.9183 115.831 40.5447 118.376 40.5447C121.064 40.5447 122.823 38.6346 122.795 35.8004L122.686 25.6346L120.138 24.6515V22.938H127.407V24.6515L125.282 25.6346L125.17 35.8004C125.144 38.2695 124.387 40.1234 122.904 41.3593C121.45 42.5953 119.523 43.2133 117.118 43.2133C114.709 43.2133 112.782 42.57 111.303 41.2498C109.849 39.9296 109.121 38.0195 109.121 35.5195V25.4099L107.027 24.7077Z" fill="white"/>
<path d="M132.43 42.8766V41.1069L134.637 40.4018V25.4075L132.43 24.7052V22.9355H142.552C145.654 22.9355 148.115 23.7782 149.958 25.4355C151.804 27.09 152.727 29.4805 152.727 32.6237C152.727 35.7979 151.776 38.326 149.905 40.1518C148.034 41.9777 145.601 42.8766 142.552 42.8766H132.43ZM141.433 40.6294C143.223 40.6294 144.65 39.9271 145.682 38.4917C146.717 37.0619 147.248 35.0957 147.248 32.6518C147.248 27.8204 145.038 25.1799 141.433 25.1799H139.839V40.6266H141.433V40.6294Z" fill="white"/>
<path d="M161.257 36.9468L160.083 40.1771L162.77 41.1603V42.8737H155.862V41.1603L157.482 40.1771L163.998 22.9355H168.336L174.875 40.4018L176.525 41.1069V42.8766H167.103V41.1069L169.312 40.4018L168.026 36.9468H161.257ZM167.187 34.7024L165.648 30.6294L164.644 27.7389H164.474L163.495 30.6575L162.043 34.6996H167.187V34.7024Z" fill="white"/>
<path d="M182.734 25.4075L180.525 24.7052V22.9355H190.87C195.261 22.9355 198.142 24.8428 198.142 28.6912C198.142 30.6603 197.44 32.1462 196.044 33.1855C194.674 34.2249 192.856 34.7305 190.591 34.7305H187.934V40.4018L190.979 41.1069V42.8766H180.525V41.1069L182.734 40.4018V25.4075ZM189.08 32.4833C191.567 32.4833 192.8 31.2193 192.8 28.7221C192.8 26.2782 191.709 25.1827 189.357 25.1827H187.931V32.4833H189.08Z" fill="white"/>
<path d="M202.413 41.1069L204.619 40.4046V25.4075L202.413 24.708V22.9355H219.328V29.1153H217.482L215.667 25.1827H209.822V31.6996L215.751 31.0507V34.4805L209.822 33.8344V40.6294H216.086L218.044 36.444H219.89V42.8766H202.413V41.1069Z" fill="white"/>
<path d="M225.926 36.556H227.797L230.062 40.851C231.626 41.2723 232.943 41.2161 234.034 40.7133C235.125 40.2077 235.684 39.4465 235.684 38.41C235.653 36.4437 233.251 35.7695 230.789 34.6459C229.114 33.8341 227.632 33.0729 226.653 31.3875C226.177 30.5476 225.926 29.5616 225.926 28.4689C225.926 26.615 226.622 25.1824 227.993 24.1431C229.391 23.1038 231.128 22.5981 233.195 22.5981C235.572 22.5981 237.698 23.0195 239.6 23.8875V28.5223H237.756L235.631 24.8425C232.753 24.1712 230.876 25.2105 230.876 27.1206C230.876 29.3931 234.453 30.2639 237.225 31.6684C239.155 32.5925 240.721 34.4493 240.721 37.0307C240.721 38.9689 239.91 40.483 238.288 41.5813C236.694 42.6768 234.652 43.2077 232.193 43.2077C230.152 43.2077 228.085 42.674 225.931 41.6347V36.556H225.926Z" fill="white"/>
<path d="M263.801 22.9355V29.1153H261.955L260.137 25.1827H257.144V40.4018L259.913 41.1069V42.8766H249.176V41.1069L251.945 40.4018V25.1827H248.952L247.134 29.1153H245.288V22.9355H263.801Z" fill="white"/>
<path d="M27.5097 28.8622L30.4352 30.0448C31.7833 30.5897 33.2712 30.5897 34.6193 30.0476L34.6277 30.0448C36.5127 29.2835 38.5908 29.2835 40.4786 30.0448C41.8323 30.5897 43.3202 30.5897 44.6711 30.0448L47.5994 28.8622V18.1318H27.5069V28.8622H27.5097ZM33.6376 24.0476H36.5687V20.1459L37.5559 19.1571L38.5404 20.1459V24.0476H41.4715L42.4812 27.9493H40.5122H38.5432H38.4342V26.1094C38.4342 25.6234 38.0426 25.2302 37.5587 25.2302C37.0749 25.2302 36.6833 25.6234 36.6833 26.1094V27.9493H36.6134H36.5715H34.6025H32.6307L33.6376 24.0476Z" fill="white"/>
<path d="M47.5994 31.1545L44.6711 32.3371C43.3202 32.8821 41.8323 32.8821 40.4786 32.3371C38.5935 31.5759 36.5127 31.5759 34.6276 32.3371L34.6192 32.3399C33.2684 32.8821 31.7832 32.8821 30.4352 32.3371L27.5069 31.1545V37.0618C27.5069 37.0618 27.3335 43.3287 37.5531 48.0001C47.7728 43.3315 47.5994 37.0618 47.5994 37.0618V31.1545ZM42.4812 43.0057H40.5122H40.4031V41.0169C40.4031 40.8175 40.3108 40.6265 40.1486 40.5085C39.4326 39.9776 38.6523 40.4804 38.6523 41.1658V43.0057H38.5404H36.5714H36.4624V41.0169C36.4624 40.8175 36.3701 40.6265 36.2078 40.5085C35.4891 39.9776 34.7087 40.4804 34.7087 41.1658V43.0057H34.5997H32.6307V36.5197L33.6152 35.5281L34.6025 36.5197V39.104H36.5714V35.2023L37.5587 34.2135L38.5432 35.2023V39.104H40.515V36.5197L41.4967 35.5281L42.4839 36.5197V43.0057H42.4812Z" fill="white"/>
<path d="M38.3335 4.88765L37.6818 2.78933L39.0159 2.37079L38.6523 1.20506L37.3182 1.6236L36.812 0L35.6513 0.365174L36.1575 1.98877L34.8234 2.40731L35.187 3.57304L36.5211 3.1545L37.0581 4.87922C32.5272 5.01125 28.7235 6.86798 27.5125 9.35674V13.0871H29.1934V14.7725H27.5125V16.2332H47.605V14.7725H45.9269V13.0871H47.605V9.35674V9.34552C46.4107 6.89888 42.7553 5.07585 38.3335 4.88765ZM34.0068 14.7725H32.3259V13.0871H34.0068V14.7725ZM35.5534 11.6264H35.531L33.1677 9.25281L30.8547 11.5759C30.8519 10.5674 30.2338 9.70225 29.3556 9.3427C30.4016 8.06742 32.6 6.90169 35.5534 6.52529V11.6264ZM37.556 15.0618C36.9323 15.0618 36.4288 14.5534 36.4288 13.9298C36.4288 13.3062 36.9351 12.7978 37.556 12.7978C38.1768 12.7978 38.6831 13.3062 38.6831 13.9298C38.6831 14.5534 38.1768 15.0618 37.556 15.0618ZM42.7832 14.7725H41.1023V13.0871H42.7832V14.7725ZM44.2544 11.5759L41.9414 9.25562L39.5781 11.6292H39.5557V6.52529C42.5175 6.89607 44.7298 8.059 45.7814 9.33428C44.8893 9.68259 44.2572 10.5534 44.2544 11.5759Z" fill="#D2B47D"/>
<path d="M71.8396 36.7388C72.5863 36.7388 73.3135 36.4719 73.8925 35.9775C74.5973 35.3736 75 34.4944 75 33.5646V33.4017C75 32.4017 74.505 31.4719 73.6743 30.9157C72.8464 30.3623 71.8004 30.2584 70.8803 30.6461L65.8292 32.764C65.3705 31.9944 64.758 29.868 64.5342 29.0562C64.8894 28.9185 65.2278 28.7472 65.5411 28.5421L66.4836 29.6348C67.236 30.5056 68.598 30.4522 69.2833 29.5281L66.6486 27.5646C66.8836 27.2921 67.0905 26.9972 67.2667 26.6798L70.6313 27.5506C71.9319 28.0056 73.3191 27.1376 73.4813 25.764L67.8317 25.1376C67.896 24.8034 67.9324 24.4578 67.9324 24.1039C67.9324 24.0758 67.9296 24.0449 67.9296 24.0168L72.0941 23.1573C73.7498 22.7387 74.5917 20.8876 73.8281 19.3567L67.5968 22.25C67.4681 21.9017 67.3031 21.5702 67.1073 21.2612L70.8803 17.3652C72.3934 15.9298 72.1948 13.4578 70.4719 12.2837L63.6532 22.5112C63.7148 22.5505 63.7735 22.5927 63.8294 22.6404C63.849 22.6573 63.8686 22.6741 63.8882 22.691C63.9217 22.7219 63.9553 22.7528 63.9888 22.7837C64.0112 22.8062 64.0336 22.8315 64.056 22.8567C64.0811 22.8848 64.1063 22.9157 64.1315 22.9466C64.1539 22.9747 64.1762 23.0056 64.1958 23.0365C64.2154 23.0646 64.2322 23.0927 64.249 23.1208C64.2713 23.1545 64.2937 23.191 64.3105 23.2303C64.3217 23.2528 64.3329 23.2781 64.344 23.3005C64.3636 23.3427 64.386 23.3876 64.4028 23.4326C64.4056 23.441 64.4084 23.4522 64.414 23.4607C64.4587 23.5814 64.4895 23.705 64.5091 23.8371C64.5119 23.8483 64.5119 23.8623 64.5147 23.8736C64.5258 23.9522 64.5314 24.0281 64.5314 24.1095C64.5314 24.2191 64.5174 24.323 64.5007 24.4241C64.4951 24.455 64.4923 24.4831 64.4867 24.514C64.4671 24.6095 64.4363 24.6994 64.4028 24.7893C64.3888 24.8258 64.3748 24.8595 64.358 24.8961C64.3217 24.9719 64.2825 25.0449 64.2378 25.118C64.2126 25.1573 64.1874 25.191 64.1623 25.2275C64.1231 25.2809 64.0811 25.3314 64.0392 25.3792C64.0112 25.4101 63.9861 25.441 63.9553 25.4691C63.8798 25.5421 63.7987 25.6123 63.712 25.6713C63.698 25.6798 63.684 25.6882 63.6672 25.6966C63.5889 25.7472 63.5078 25.7921 63.4211 25.8286C63.3903 25.8427 63.3568 25.8539 63.3232 25.868C63.2477 25.8961 63.1722 25.9213 63.0939 25.941C63.0603 25.9494 63.0267 25.9579 62.9932 25.9635C62.8813 25.9831 62.7666 25.9972 62.652 25.9972C62.5848 25.9972 62.5205 25.9944 62.4562 25.9859C62.4478 25.9859 62.4394 25.9831 62.431 25.9831C62.3751 25.9775 62.3191 25.9691 62.2632 25.955C62.2604 25.955 62.2576 25.9522 62.2548 25.9522C62.1066 25.9185 61.9639 25.868 61.8297 25.8034C61.8101 25.7949 61.7905 25.7837 61.771 25.7753C61.7094 25.7416 61.6479 25.705 61.5892 25.6657C61.5444 25.6348 61.5025 25.6039 61.4605 25.5674C61.4577 25.5646 61.4549 25.5618 61.4493 25.559C61.3794 25.5 61.3151 25.4382 61.2563 25.3708C61.2368 25.3483 61.2144 25.3258 61.1948 25.3005C61.192 25.2977 61.1892 25.2949 61.1892 25.2921C60.9291 24.9691 60.7725 24.5562 60.7725 24.1067C60.7725 24.0253 60.7809 23.9438 60.7893 23.8652C60.7893 23.8623 60.7893 23.8595 60.7893 23.8567C60.7893 23.8483 60.7949 23.8371 60.7949 23.8286C60.8144 23.7022 60.8452 23.5786 60.8872 23.4607C61.1081 22.7753 61.6227 21.9298 62.0982 21.2078C62.3331 20.8989 62.624 20.4944 62.9233 20.0337L62.9261 20.0309C64.0364 18.3258 65.2474 15.8539 64.0392 14.5449L65.9998 12.2865L58.8539 12.9635C57.5589 13.1376 56.5241 14.4326 56.1241 15.6994H59.3433C60.0789 15.6994 60.7837 15.9887 61.3067 16.5028L61.6982 16.8848H56.9716L57.475 17.2556C58.2805 17.8455 59.2482 18.1629 60.2439 18.1629H61.8912C60.2635 19.1208 56.9268 20.2781 55.5592 22.5477L50.7962 22.1432L51.5066 19.6601L49.2663 18.2753V23.2331L54.8656 25.9859L59.0748 25.4354L50.9192 30.4185L51.5066 28.2107L49.2663 26.8258V31.4298V32.1994L50.4354 31.8792C54.846 30.7668 57.7967 31.2163 59.7684 32.3624L54.0377 37.8202L57.2876 45.1039L54.0573 44.4579L53.2965 46.9213H60.283C60.283 46.9213 56.3703 42.7219 61.3179 40.764C61.3179 40.764 58.0176 40.4607 56.938 38.0506L61.3179 37.8989C61.3179 37.8989 61.7682 34.8932 60.9123 33.1938C64.0224 35.9747 63.7092 40.7388 63.7092 40.7388C70.7964 39.9944 71.7333 43.8286 71.9291 45.1545L68.4442 44.4579L67.6835 46.9213H74.5162L71.8228 38.5955C68.805 38.691 67.717 37.3539 67.4094 36.0871L71.3473 36.7107C71.5123 36.7247 71.6774 36.7388 71.8396 36.7388ZM66.9899 34.205L71.5655 32.2865C71.9431 32.1292 72.3542 32.1685 72.6926 32.3961C73.031 32.6236 73.2268 32.9888 73.2268 33.3989V33.5618C73.2268 33.9691 73.0506 34.3539 72.7402 34.6208C72.4325 34.8848 72.027 35.0028 71.6242 34.9382L66.9899 34.205Z" fill="#D2B47D"/>
<path d="M20.4393 25.9804L25.8092 23.3877V18.2697L23.569 19.6545L24.257 22.0534L19.1164 22.7023C17.662 19.6629 15.3574 18.2809 15.3574 18.2809L18.8954 18.2416L19.2982 16.8792H16.3699L16.8202 15.691H19.4268L19.8995 13.6938C19.7904 13.7023 19.4296 13.7107 19.3206 13.7107C17.911 13.7107 16.6356 13.1377 15.7126 12.2107H10.5161L11.6768 13.5843L9.36661 17.2669H11.0923L9.62951 20.7472H11.3216L10.7762 24.7837L12.4879 24.9944L9.60714 31.3905C9.57637 31.4747 9.54001 31.5562 9.49806 31.6349L9.49527 31.6405C9.11489 32.3512 8.37094 32.8343 7.5151 32.8371C7.50951 32.8371 7.50392 32.8399 7.49832 32.8399C7.43679 32.8399 7.37526 32.8315 7.31373 32.8259C7.29695 32.8231 7.28017 32.8231 7.26339 32.8231C7.21304 32.8174 7.1655 32.809 7.11516 32.8006C7.076 32.795 7.03405 32.7865 6.99489 32.7781C6.95574 32.7697 6.91658 32.7585 6.88022 32.7472C6.82708 32.7332 6.77674 32.7135 6.7264 32.6967C6.69843 32.6854 6.67325 32.677 6.64529 32.6686C6.56698 32.6349 6.49146 32.6012 6.41595 32.559C6.40756 32.5534 6.39637 32.5478 6.38798 32.5422C6.32085 32.5028 6.25653 32.4607 6.1922 32.4158C6.17822 32.4045 6.16423 32.3933 6.15025 32.3849C6.08872 32.3371 6.02719 32.2865 5.96845 32.2332C5.96286 32.2276 5.95726 32.2219 5.95167 32.2191C5.61325 31.8961 5.37273 31.4719 5.28323 30.9944C5.28043 30.9747 5.27763 30.9551 5.27484 30.9354C5.26645 30.8736 5.25806 30.8146 5.25246 30.7528C5.24966 30.7135 5.24687 30.6714 5.24687 30.6321C5.24687 30.6124 5.24407 30.5955 5.24407 30.5759C5.24407 30.5534 5.24687 30.5309 5.24687 30.5085C5.24687 30.4607 5.24966 30.4101 5.25526 30.3624C5.25805 30.3315 5.26365 30.3034 5.26645 30.2725C5.29162 30.0815 5.34196 29.8933 5.41468 29.7107C5.41747 29.7023 5.42307 29.691 5.42587 29.6826C5.43985 29.6489 5.45104 29.6152 5.46782 29.5815L7.55146 25.2051C7.9598 24.3455 7.90386 23.3483 7.39764 22.5422C6.89141 21.736 6.02159 21.2528 5.07067 21.2528H3.37019H0C0 22.6096 1.09356 23.7079 2.44444 23.7079C3.0961 23.7079 3.68623 23.4495 4.12534 23.0337H4.1589C4.35747 22.868 4.60919 22.7641 4.88887 22.7641C5.52655 22.7641 6.04397 23.2837 6.04397 23.9242C6.04397 23.9298 6.04397 23.9326 6.04117 23.9382C6.05515 24.1068 6.02439 24.2753 5.94887 24.4354L3.86523 28.8118C3.26111 30.0787 3.34781 31.5422 4.09177 32.7304C4.83294 33.913 6.1055 34.6208 7.49553 34.6264C7.67173 35.941 7.02845 38.4214 3.48486 38.5843L0.785911 46.9102H7.68851L6.92777 44.4467L3.38138 45.1545C3.63589 43.8399 4.99236 39.9832 12.0991 40.7276C12.0991 40.7276 11.5174 35.9635 14.4177 33.1826C13.6374 34.8708 14.2527 37.8343 14.2527 37.8343L18.364 38.0394C17.2845 40.4523 13.9842 40.7528 13.9842 40.7528C18.9346 42.7107 15.019 46.9102 15.019 46.9102H22.0726L21.3119 44.4467L18.0368 45.1012L21.3986 37.8006L15.5252 32.3371C17.3935 31.2051 20.2575 30.7669 24.6206 31.8652L25.8092 32.191V26.8203L23.569 28.2051L24.1507 30.3933L13.973 25.1826L20.4393 25.9804Z" fill="#D2B47D"/>
</svg>
